<svg width="18" height="18" viewBox="0 0 18 18" fill="none" xmlns="http://www.w3.org/2000/svg">
<path d="M0 0H9C13.9706 0 18 4.02944 18 9C18 13.9706 13.9706 18 9 18C4.02944 18 0 13.9706 0 9V0Z" fill="#0078FF"/>
<path d="M12.4286 8.14286H9.85714V5.57143C9.85714 5.25589 9.60125 5 9.28571 5H8.71429C8.39875 5 8.14286 5.25589 8.14286 5.57143V8.14286H5.57143C5.25589 8.14286 5 8.39875 5 8.71429V9.28571C5 9.60125 5.25589 9.85714 5.57143 9.85714H8.14286V12.4286C8.14286 12.7441 8.39875 13 8.71429 13H9.28571C9.60125 13 9.85714 12.7441 9.85714 12.4286V9.85714H12.4286C12.7441 9.85714 13 9.60125 13 9.28571V8.71429C13 8.39875 12.7441 8.14286 12.4286 8.14286Z" fill="white"/>
</svg>
